IKResults2
version=1
nRows=16
nColumns=40
inDegrees=yes

Units are S.I. units (second, meters, Newtons, ...)
If the header above contains a line with 'inDegrees', this indicates whether rotational values are in degrees (yes) or radians (no).

endheader
time	pelvis_tilt	pelvis_list	pelvis_rotation	pelvis_tx	pelvis_ty	pelvis_tz	hip_flexion_r	hip_adduction_r	hip_rotation_r	knee_angle_r	knee_angle_r_beta	ankle_angle_r	subtalar_angle_r	mtp_angle_r	hip_flexion_l	hip_adduction_l	hip_rotation_l	knee_angle_l	knee_angle_l_beta	ankle_angle_l	subtalar_angle_l	mtp_angle_l	lumbar_extension	lumbar_bending	lumbar_rotation	arm_flex_r	arm_add_r	arm_rot_r	elbow_flex_r	pro_sup_r	wrist_flex_r	wrist_dev_r	arm_flex_l	arm_add_l	arm_rot_l	elbow_flex_l	pro_sup_l	wrist_flex_l	wrist_dev_l
      0.88000000	      8.30902380	    -12.10211352	    -50.55395690	      1.00997830	      0.86497848	      0.32591339	     -7.65901108	    -24.99229839	    -32.51957539	     56.61680381	      0.98814964	     21.75076693	    -23.51109324	      0.60481496	     24.17903001	    -35.48697557	    -26.87059904	     55.61499500	      0.97066478	      4.52943721	     -0.71497461	      0.00000000	    -27.85421986	     -0.62340109	      4.22716969	    -14.43125700	    -21.11444458	    -13.22755113	    120.21511644	     76.06170846	      0.00000000	      0.00000000	     -1.20870081	    -15.79128559	    -56.64524526	     94.78583483	     66.45444471	      0.00000000	      0.00000000
      0.88400000	      8.24885450	    -12.10255366	    -50.54170522	      1.00994558	      0.86487160	      0.32585127	     -7.60286612	    -24.92658190	    -32.50868060	     56.63189815	      0.98841308	     21.70796530	    -23.57717525	      0.61154507	     24.29479551	    -35.51340525	    -26.76600504	     55.63761736	      0.97105961	      4.40840674	     -0.86319663	      0.00000000	    -27.81944677	     -0.56717075	      4.27083845	    -14.46186970	    -21.12049204	    -13.27639784	    120.27211482	     75.75106449	      0.00000000	      0.00000000	     -1.14987968	    -15.80217896	    -56.58302623	     94.75223378	     66.49496325	      0.00000000	      0.00000000
      0.88800000	      8.27444108	    -12.08582942	    -50.52966765	      1.01003411	      0.86491241	      0.32585701	     -7.61787377	    -24.96225410	    -32.52048604	     56.61540116	      0.98812516	     21.66839862	    -23.56844481	      0.61524617	     24.25327779	    -35.49824470	    -26.84483555	     55.63206953	      0.97096278	      4.51321895	     -0.68964849	      0.00000000	    -27.82462897	     -0.58392065	      4.18868987	    -14.37138551	    -21.11495352	    -13.19147584	    120.25157913	     75.91996764	      0.00000000	      0.00000000	     -1.21873522	    -15.76666487	    -56.61985442	     94.79287765	     66.45318434	      0.00000000	      0.00000000
      0.89200000	      8.27303314	    -12.06849853	    -50.55527305	      1.00999113	      0.86483582	      0.32590158	     -7.57800204	    -24.99067186	    -32.49520440	     56.65924513	      0.98889038	     21.71567471	    -23.57329800	      0.62351066	     24.27018717	    -35.48118516	    -26.81622278	     55.63913794	      0.97108615	      4.46219413	     -0.81794347	      0.00000000	    -27.80904820	     -0.61437129	      4.24548470	    -14.43317311	    -21.11683551	    -13.23816523	    120.24835585	     75.93191053	      0.00000000	      0.00000000	     -1.23003624	    -15.82076024	    -56.56386392	     94.79872350	     66.44956588	      0.00000000	      0.00000000
      0.89600000	      8.29829551	    -12.05903712	    -50.55168223	      1.01004479	      0.86482240	      0.32599795	     -7.58665941	    -25.03141640	    -32.50462200	     56.68057702	      0.98926269	     21.71152202	    -23.58910848	      0.61735806	     24.22761129	    -35.47925425	    -26.89398682	     55.63964369	      0.97109498	      4.49978344	     -0.72771353	      0.00000000	    -27.80086314	     -0.63677926	      4.22598111	    -14.44100744	    -21.11140769	    -13.15776760	    120.24857094	     75.96202177	      0.00000000	      0.00000000	     -1.19459644	    -15.77824730	    -56.60100073	     94.79016515	     66.44365763	      0.00000000	      0.00000000
      0.90000000	      8.28193388	    -12.03537233	    -50.54162744	      1.01000599	      0.86476665	      0.32597792	     -7.55375400	    -25.02066386	    -32.49478791	     56.68133334	      0.98927589	     21.69600037	    -23.60090446	      0.60482446	     24.29001340	    -35.45971519	    -26.83289571	     55.64833043	      0.97124659	      4.49782048	     -0.74795479	      0.00000000	    -27.78508308	     -0.64813331	      4.21019001	    -14.42594490	    -21.12242490	    -13.14958993	    120.23724624	     75.94483875	      0.00000000	      0.00000000	     -1.16674501	    -15.81193138	    -56.63414555	     94.79452479	     66.48966425	      0.00000000	      0.00000000
      0.90400000	      8.27644405	    -12.02318698	    -50.55785616	      1.01000641	      0.86471857	      0.32599008	     -7.54119773	    -25.04565789	    -32.51849326	     56.69063113	      0.98943817	     21.75528759	    -23.51090705	      0.60598943	     24.29429094	    -35.45759935	    -26.83557236	     55.64193897	      0.97113504	      4.50770249	     -0.73301731	      0.00000000	    -27.77333284	     -0.64644316	      4.19035888	    -14.39325787	    -21.12338283	    -13.14930585	    120.24440564	     75.94064181	      0.00000000	      0.00000000	     -1.23417669	    -15.81336745	    -56.63631237	     94.79933096	     66.45549211	      0.00000000	      0.00000000
      0.90800000	      8.21984521	    -12.02896175	    -50.52277957	      1.01001368	      0.86461632	      0.32595582	     -7.50628543	    -24.98710834	    -32.52993009	     56.71999407	      0.98995065	     21.71888516	    -23.55391026	      0.58861452	     24.40669889	    -35.49438766	    -26.75432501	     55.67662889	      0.97174049	      4.42455429	     -0.93945834	      0.00000000	    -27.73918894	     -0.59069674	      4.24535183	    -14.46026625	    -21.10905126	    -13.20981128	    120.26426450	     75.66911390	      0.00000000	      0.00000000	     -1.13577692	    -15.83191476	    -56.53896153	     94.77368980	     66.48483868	      0.00000000	      0.00000000
      0.91200000	      8.18722825	    -12.06023037	    -50.56617589	      1.00998080	      0.86463101	      0.32593084	     -7.49196594	    -24.92684826	    -32.47947727	     56.68401993	      0.98932278	     21.67455689	    -23.63882059	      0.60453917	     24.41913419	    -35.53877936	    -26.71827426	     55.69000421	      0.97197393	      4.31428937	     -1.07063680	      0.00000000	    -27.75539521	     -0.54881960	      4.39083895	    -14.53866352	    -21.11103844	    -13.31232249	    120.34806757	     75.00971128	      0.00000000	      0.00000000	     -1.06600595	    -15.82246061	    -56.35994843	     94.71967136	     66.45015026	      0.00000000	      0.00000000
      0.91600000	      8.27852100	    -11.98301150	    -50.59563281	      1.00997714	      0.86459305	      0.32604191	     -7.47130755	    -25.08867465	    -32.45771585	     56.73346007	      0.99018567	     21.78093231	    -23.53040794	      0.60170312	     24.30680663	    -35.45552368	    -26.89028215	     55.67493878	      0.97171099	      4.54758068	     -0.76792120	      0.00000000	    -27.75295012	     -0.69221613	      4.21818391	    -14.37041710	    -21.14614553	    -13.11393380	    120.25648129	     75.97693199	      0.00000000	      0.00000000	     -1.20474269	    -15.84234505	    -56.60250024	     94.82901173	     66.44491332	      0.00000000	      0.00000000
      0.92000000	      8.25301025	    -12.00265122	    -50.55867852	      1.01000205	      0.86458956	      0.32596897	     -7.48875821	    -25.04904888	    -32.50256897	     56.72149273	      0.98997680	     21.70782054	    -23.57777127	      0.59946981	     24.38070502	    -35.45521666	    -26.77616884	     55.68882291	      0.97195332	      4.39531763	     -0.91597172	      0.00000000	    -27.75819601	     -0.63681447	      4.27831694	    -14.44612115	    -21.12792021	    -13.20273085	    120.31655077	     75.56352716	      0.00000000	      0.00000000	     -1.11006055	    -15.84211225	    -56.49403786	     94.74290886	     66.46091556	      0.00000000	      0.00000000
      0.92400000	      8.27428863	    -11.97130815	    -50.58724566	      1.01001652	      0.86455782	      0.32609127	     -7.47431378	    -25.09198085	    -32.47326326	     56.73115555	      0.99014545	     21.79949452	    -23.54465010	      0.57859872	     24.33557208	    -35.44829797	    -26.86081707	     55.68973157	      0.97196918	      4.50608440	     -0.74191909	      0.00000000	    -27.73593912	     -0.69148559	      4.21276520	    -14.37109234	    -21.15311484	    -13.09827486	    120.22578913	     76.17332937	      0.00000000	      0.00000000	     -1.19041810	    -15.83162133	    -56.61767778	     94.83061497	     66.46793268	      0.00000000	      0.00000000
      0.92800000	      8.25766923	    -11.98836680	    -50.56454396	      1.00999997	      0.86455247	      0.32603905	     -7.48543508	    -25.06049756	    -32.49825351	     56.72731466	      0.99007842	     21.78778839	    -23.52095237	      0.59285558	     24.37228472	    -35.45862310	    -26.81098601	     55.69654192	      0.97208804	      4.47518193	     -0.80630977	      0.00000000	    -27.75723723	     -0.65730070	      4.21371653	    -14.36377352	    -21.14212397	    -13.10961579	    120.27632711	     75.89754203	      0.00000000	      0.00000000	     -1.16630015	    -15.84579896	    -56.56918847	     94.80241623	     66.45804058	      0.00000000	      0.00000000
      0.93200000	      8.22687724	    -12.01562384	    -50.44282124	      1.01015754	      0.86453905	      0.32591783	     -7.58993867	    -24.99951133	    -32.68086854	     56.67061476	      0.98908882	     21.77251503	    -23.50634842	      0.61137189	     24.51999277	    -35.42163556	    -26.56473978	     55.71875304	      0.97247570	      4.36957353	     -0.99480129	      0.00000000	    -27.75284338	     -0.55714435	      4.24782884	    -14.48408607	    -21.10941776	    -13.25664579	    120.33629440	     75.39250039	      0.00000000	      0.00000000	     -1.05110513	    -15.85870101	    -56.34447600	     94.72993279	     66.41284943	      0.00000000	      0.00000000
      0.93600000	      8.17074044	    -12.03549197	    -50.60572514	      1.00993466	      0.86449040	      0.32604174	     -7.43496350	    -24.94083615	    -32.43180582	     56.71752236	      0.98990751	     21.77377171	    -23.55039820	      0.61108656	     24.44432306	    -35.56237357	    -26.75106923	     55.72041741	      0.97250474	      4.30270509	     -1.15256775	      0.00000000	    -27.74732899	     -0.56625215	      4.38975977	    -14.46814011	    -21.15480106	    -13.22152979	    120.36220830	     74.99350425	      0.00000000	      0.00000000	     -1.06399788	    -15.83949664	    -56.37442517	     94.76864304	     66.37750397	      0.00000000	      0.00000000
      0.94000000	      8.25167136	    -11.92976218	    -50.61574046	      1.00993850	      0.86443093	      0.32609820	     -7.37767582	    -25.10778150	    -32.41439774	     56.77608835	      0.99092968	     21.80600345	    -23.53222969	      0.60425542	     24.39066596	    -35.44675725	    -26.87025100	     55.70469554	      0.97223035	      4.44817597	     -0.86113392	      0.00000000	    -27.71420133	     -0.70884337	      4.23856044	    -14.34347996	    -21.14515572	    -13.10359234	    120.27990159	     76.21289612	      0.00000000	      0.00000000	     -1.15084829	    -15.85454250	    -56.55173580	     94.84590443	     66.35165763	      0.00000000	      0.00000000
